<?xml version="1.0" standalone="no"?>
<!DOCTYPE svg PUBLIC "-//W3C//DTD SVG 20010904//EN"
 "http://www.w3.org/TR/2001/REC-SVG-20010904/DTD/svg10.dtd">
<svg version="1.0" xmlns="http://www.w3.org/2000/svg"
 width="820.000000pt" height="1060.000000pt" viewBox="0 0 820.000000 1060.000000"
 preserveAspectRatio="xMidYMid meet">
<metadata>
Created by potrace 1.16, written by Peter Selinger 2001-2019
</metadata>
<g transform="translate(0.000000,1060.000000) scale(0.100000,-0.100000)"
fill="#000000" stroke="none">
<path d="M1585 10189 c-175 -6 -197 -9 -282 -37 -192 -64 -361 -169 -503 -312
-108 -108 -175 -200 -249 -345 -59 -116 -76 -176 -91 -335 -21 -212 -27 -1422
-22 -4615 l4 -3170 38 -105 c71 -200 161 -348 300 -494 146 -152 291 -245 517
-330 l122 -46 2139 0 2139 0 107 40 c274 103 436 213 594 405 99 119 153 214
220 389 l55 141 5 1048 5 1048 106 87 c229 187 406 380 555 605 199 299 347
673 395 997 30 199 30 651 1 835 -62 390 -271 854 -530 1180 -99 124 -262 287
-401 401 l-126 103 -6 773 -5 773 -41 108 c-91 238 -180 377 -339 529 -145
139 -269 213 -501 299 l-106 39 -1955 -2 c-1075 -1 -2040 -5 -2145 -9z m2070
-360 c83 -41 125 -110 125 -203 0 -162 -161 -269 -308 -206 -168 72 -192 272
-46 383 82 63 142 70 229 26z m2409 -1291 c4 -279 6 -514 3 -522 -4 -11 -38
-6 -179 29 -213 53 -344 73 -557 85 -729 42 -1407 -222 -1936 -754 -215 -217
-368 -430 -496 -691 -173 -354 -241 -665 -243 -1100 -1 -252 8 -346 49 -550
154 -763 696 -1441 1428 -1785 203 -95 430 -166 662 -207 81 -14 157 -17 395
-17 344 0 481 16 721 85 77 22 144 38 147 34 4 -3 8 -240 10 -526 l4 -519
-2511 0 -2511 0 0 3298 c0 1813 3 3374 7 3469 l6 172 46 4 c25 2 1149 3 2496
3 l2450 -1 9 -507z m-644 -1488 l0 -180 64 0 c74 0 210 -22 315 -51 69 -20
187 -65 203 -78 4 -4 -13 -81 -37 -171 -74 -270 -74 -270 -92 -270 -9 0 -78
20 -153 45 -177 58 -251 68 -430 63 -117 -4 -156 -9 -201 -27 -81 -31 -120
-77 -134 -157 -22 -138 82 -224 455 -374 392 -158 547 -272 647 -478 l48 -97
0 -196 0 -196 -52 -105 c-109 -219 -293 -363 -563 -441 l-85 -25 -3 -206 -2
-206 -200 0 -200 0 0 189 0 190 -47 6 c-263 36 -535 106 -617 160 -33 22 -33
38 4 188 41 162 79 277 95 283 7 3 66 -15 131 -40 225 -87 429 -121 618 -104
194 17 302 104 300 244 -2 155 -77 215 -449 364 -309 123 -425 190 -541 311
-108 114 -140 181 -155 335 -16 154 0 285 44 378 99 206 261 333 540 422 l87
28 0 188 0 188 205 0 205 0 0 -180z m-1136 -5520 c57 -21 139 -100 167 -162
35 -77 33 -193 -3 -264 -15 -28 -44 -66 -64 -84 -79 -69 -33 -65 -819 -65
l-710 0 -47 23 c-96 48 -158 152 -158 267 0 82 20 133 75 194 45 50 95 81 155
98 69 19 1349 12 1404 -7z"/>
</g>
</svg>
